<?xml version="1.0" standalone="no"?>
<!DOCTYPE svg PUBLIC "-//W3C//DTD SVG 20010904//EN"
 "http://www.w3.org/TR/2001/REC-SVG-20010904/DTD/svg10.dtd">
<svg version="1.0" xmlns="http://www.w3.org/2000/svg"
 width="500.000000pt" height="500.000000pt" viewBox="0 0 500.000000 500.000000"
 preserveAspectRatio="xMidYMid meet">
  <g transform="translate(0.000000,500.000000) scale(0.100000,-0.100000)"
  fill="#000000" stroke="none">
    <path d="M1656 3408 c-166 -15 -320 -93 -454 -230 -84 -86 -126 -146 -178
    -253 -181 -378 -112 -818 175 -1119 137 -143 288 -219 471 -237 246 -24 482
    73 590 241 53 82 72 152 79 285 l6 120 113 3 c104 2 112 4 112 22 0 20 -9 20
    -390 20 -383 0 -390 0 -390 -20 0 -19 7 -20 141 -20 l141 0 -4 -187 c-5 -222
    -16 -262 -87 -333 -65 -64 -129 -85 -256 -84 -86 1 -110 5 -169 29 -132 54
    -223 175 -273 362 -25 94 -27 111 -31 426 -5 418 8 527 83 682 87 181 257 272
    462 246 225 -28 372 -161 463 -421 25 -68 37 -90 51 -90 5 0 9 124 9 275 0
    322 4 313 -100 210 l-66 -66 -65 43 c-113 77 -268 111 -433 96z"/>
    <path d="M2677 3383 c-4 -3 -7 -15 -7 -25 0 -16 10 -18 115 -18 l115 0 0 -840
    0 -840 -116 0 c-114 0 -115 0 -112 -22 l3 -23 666 -3 c367 -1 684 1 705 6 60
    12 66 42 62 304 -3 213 -10 258 -35 226 -5 -7 -21 -60 -36 -118 -49 -202 -91
    -279 -182 -335 l-48 -30 -329 -3 -328 -3 0 840 0 841 125 0 125 0 0 25 0 25
    -358 0 c-197 0 -362 -3 -365 -7z"/>
  </g>
</svg>
