<svg xmlns="http://www.w3.org/2000/svg" xmlns:xlink="http://www.w3.org/1999/xlink" width="500" zoomAndPan="magnify" viewBox="0 0 375 374.999991" height="500" preserveAspectRatio="xMidYMid meet" version="1.0"><defs><g/></defs><g fill="#adc9ce" fill-opacity="1"><g transform="translate(5.96351, 288.597741)"><g><path d="M 180.875 -27.765625 C 173.707031 -17.492188 163.703125 -9.8125 150.859375 -4.71875 C 138.015625 0.363281 123.0625 2.90625 106 2.90625 C 88.738281 2.90625 73.421875 -1.140625 60.046875 -9.234375 C 46.671875 -17.328125 36.320312 -28.835938 29 -43.765625 C 21.6875 -58.691406 17.929688 -75.992188 17.734375 -95.671875 L 17.734375 -114.140625 C 17.734375 -146.035156 25.171875 -170.753906 40.046875 -188.296875 C 54.929688 -205.835938 75.847656 -214.609375 102.796875 -214.609375 C 124.898438 -214.609375 142.6875 -208.960938 156.15625 -197.671875 C 169.632812 -186.378906 177.875 -170.363281 180.875 -149.625 L 152.96875 -149.625 C 147.726562 -177.632812 131.050781 -191.640625 102.9375 -191.640625 C 84.226562 -191.640625 70.050781 -185.070312 60.40625 -171.9375 C 50.769531 -158.800781 45.898438 -139.773438 45.796875 -114.859375 L 45.796875 -97.5625 C 45.796875 -73.8125 51.222656 -54.929688 62.078125 -40.921875 C 72.941406 -26.921875 87.628906 -19.921875 106.140625 -19.921875 C 116.609375 -19.921875 125.769531 -21.082031 133.625 -23.40625 C 141.476562 -25.738281 147.972656 -29.664062 153.109375 -35.1875 L 153.109375 -82.734375 L 104.109375 -82.734375 L 104.109375 -105.421875 L 180.875 -105.421875 Z M 180.875 -27.765625 "/></g></g><g transform="translate(208.797664, 288.597741)"><g><path d="M 52.640625 -22.828125 L 152.96875 -22.828125 L 152.96875 0 L 24.578125 0 L 24.578125 -211.703125 L 52.640625 -211.703125 Z M 52.640625 -22.828125 "/></g></g></g></svg>