<svg xmlns="http://www.w3.org/2000/svg" xmlns:xlink="http://www.w3.org/1999/xlink" width="500" zoomAndPan="magnify" viewBox="0 0 375 374.999991" height="500" preserveAspectRatio="xMidYMid meet" version="1.0"><defs><g/></defs><g fill="#4e8098" fill-opacity="1"><g transform="translate(3.843754, 285.005457)"><g><path d="M 99.359375 -197.84375 C 87.191406 -197.84375 75.703125 -195.140625 64.890625 -189.734375 C 54.078125 -184.328125 44.660156 -176.988281 36.640625 -167.71875 C 28.628906 -158.445312 22.253906 -147.628906 17.515625 -135.265625 C 12.785156 -122.910156 10.421875 -109.878906 10.421875 -96.171875 C 10.421875 -82.460938 12.832031 -69.425781 17.65625 -57.0625 C 22.488281 -44.707031 28.960938 -33.894531 37.078125 -24.625 C 45.191406 -15.351562 54.554688 -8.015625 65.171875 -2.609375 C 75.796875 2.796875 86.898438 5.5 98.484375 5.5 C 107.753906 5.5 116.492188 4.289062 124.703125 1.875 C 132.910156 -0.53125 140.148438 -4.242188 146.421875 -9.265625 C 152.703125 -14.285156 157.628906 -20.707031 161.203125 -28.53125 C 164.773438 -36.351562 166.5625 -45.671875 166.5625 -56.484375 L 166.5625 -66.328125 L 191.765625 -66.328125 L 191.765625 -70.96875 L 105.734375 -70.96875 L 105.734375 -66.328125 L 136.71875 -66.328125 L 136.71875 -39.109375 C 136.71875 -34.472656 136.234375 -29.835938 135.265625 -25.203125 C 134.304688 -20.566406 132.472656 -16.363281 129.765625 -12.59375 C 127.066406 -8.832031 123.253906 -5.742188 118.328125 -3.328125 C 113.398438 -0.910156 106.976562 0.296875 99.0625 0.296875 C 82.257812 0.296875 69.222656 -6.363281 59.953125 -19.6875 C 50.691406 -33.019531 46.0625 -52.816406 46.0625 -79.078125 L 46.0625 -114.703125 C 46.0625 -128.421875 47.363281 -140.203125 49.96875 -150.046875 C 52.570312 -159.898438 56.238281 -167.960938 60.96875 -174.234375 C 65.707031 -180.515625 71.3125 -185.148438 77.78125 -188.140625 C 84.25 -191.128906 91.441406 -192.625 99.359375 -192.625 C 113.453125 -192.625 125.519531 -188.519531 135.5625 -180.3125 C 145.601562 -172.113281 153.71875 -158.164062 159.90625 -138.46875 C 160.476562 -136.726562 161.34375 -135.859375 162.5 -135.859375 C 163.664062 -135.859375 164.25 -136.726562 164.25 -138.46875 L 164.25 -193.21875 C 164.25 -195.332031 163.472656 -196.390625 161.921875 -196.390625 C 160.960938 -196.390625 160.238281 -196.195312 159.75 -195.8125 C 159.269531 -195.425781 158.644531 -194.847656 157.875 -194.078125 L 145.421875 -181.625 C 139.816406 -186.644531 133.003906 -190.601562 124.984375 -193.5 C 116.972656 -196.394531 108.429688 -197.84375 99.359375 -197.84375 Z M 99.359375 -197.84375 "/></g></g></g><g fill="#4e8098" fill-opacity="1"><g transform="translate(197.634352, 285.005457)"><g><path d="M 160.765625 -53.59375 C 159.222656 -46.25 157.582031 -39.582031 155.84375 -33.59375 C 154.101562 -27.613281 151.785156 -22.453125 148.890625 -18.109375 C 145.992188 -13.765625 142.320312 -10.429688 137.875 -8.109375 C 133.4375 -5.796875 127.835938 -4.640625 121.078125 -4.640625 L 61.703125 -4.640625 L 61.703125 -190.03125 L 89.21875 -190.03125 L 89.21875 -194.65625 L 8.6875 -194.65625 L 8.6875 -190.03125 L 33.609375 -190.03125 L 33.609375 -4.640625 L 8.6875 -4.640625 L 8.6875 0 L 157.875 0 C 163.46875 0 166.265625 -3.085938 166.265625 -9.265625 L 166.265625 -52.71875 C 166.265625 -57.351562 165.492188 -59.671875 163.953125 -59.671875 C 162.597656 -59.671875 161.535156 -57.644531 160.765625 -53.59375 Z M 160.765625 -53.59375 "/></g></g></g></svg>