<svg xmlns="http://www.w3.org/2000/svg" xmlns:xlink="http://www.w3.org/1999/xlink" width="500" zoomAndPan="magnify" viewBox="0 0 375 374.999991" height="500" preserveAspectRatio="xMidYMid meet" version="1.0"><defs><g/><clipPath id="aa4e17f3db"><path d="M 2.835938 5.324219 L 372.585938 5.324219 L 372.585938 375 L 2.835938 375 Z M 2.835938 5.324219 " clip-rule="nonzero"/></clipPath><clipPath id="77e118009a"><path d="M 187.710938 5.324219 C 85.605469 5.324219 2.835938 88.097656 2.835938 190.199219 C 2.835938 292.304688 85.605469 375.074219 187.710938 375.074219 C 289.8125 375.074219 372.585938 292.304688 372.585938 190.199219 C 372.585938 88.097656 289.8125 5.324219 187.710938 5.324219 " clip-rule="nonzero"/></clipPath><clipPath id="5cb6aa5ae9"><path d="M 21.183594 23.84375 L 354.183594 23.84375 L 354.183594 356.84375 L 21.183594 356.84375 Z M 21.183594 23.84375 " clip-rule="nonzero"/></clipPath><clipPath id="cd1e0f782b"><path d="M 187.683594 23.84375 C 95.726562 23.84375 21.183594 98.390625 21.183594 190.34375 C 21.183594 282.300781 95.726562 356.84375 187.683594 356.84375 C 279.636719 356.84375 354.183594 282.300781 354.183594 190.34375 C 354.183594 98.390625 279.636719 23.84375 187.683594 23.84375 " clip-rule="nonzero"/></clipPath><clipPath id="5462e34ca4"><path d="M 100.070312 100.070312 L 274.820312 100.070312 L 274.820312 274.820312 L 100.070312 274.820312 Z M 100.070312 100.070312 " clip-rule="nonzero"/></clipPath><clipPath id="ba9c455564"><path d="M 187.445312 100.070312 C 139.1875 100.070312 100.070312 139.1875 100.070312 187.445312 C 100.070312 235.699219 139.1875 274.820312 187.445312 274.820312 C 235.699219 274.820312 274.820312 235.699219 274.820312 187.445312 C 274.820312 139.1875 235.699219 100.070312 187.445312 100.070312 " clip-rule="nonzero"/></clipPath></defs><g clip-path="url(#aa4e17f3db)"><g clip-path="url(#77e118009a)"><path stroke-linecap="butt" transform="matrix(0.750166, 0, 0, 0.750166, 2.835806, 5.325564)" fill="none" stroke-linejoin="miter" d="M 246.445531 -0.0017928 C 110.335086 -0.0017928 0.000174866 110.338325 0.000174866 246.443564 C 0.000174866 382.55401 110.335086 492.88892 246.445531 492.88892 C 382.55077 492.88892 492.890888 382.55401 492.890888 246.443564 C 492.890888 110.338325 382.55077 -0.0017928 246.445531 -0.0017928 " stroke="#000000" stroke-width="30" stroke-opacity="1" stroke-miterlimit="4"/></g></g><g clip-path="url(#5cb6aa5ae9)"><g clip-path="url(#cd1e0f782b)"><path stroke-linecap="butt" transform="matrix(0.750845, 0, 0, 0.750845, 21.182129, 23.844904)" fill="none" stroke-linejoin="miter" d="M 221.75198 -0.00153751 C 99.280663 -0.00153751 0.00195076 99.282377 0.00195076 221.748492 C 0.00195076 344.21981 99.280663 443.498522 221.75198 443.498522 C 344.218096 443.498522 443.50201 344.21981 443.50201 221.748492 C 443.50201 99.282377 344.218096 -0.00153751 221.75198 -0.00153751 " stroke="#000000" stroke-width="25" stroke-opacity="1" stroke-miterlimit="4"/></g></g><g clip-path="url(#5462e34ca4)"><g clip-path="url(#ba9c455564)"><path stroke-linecap="butt" transform="matrix(0.749548, 0, 0, 0.749548, 100.068682, 100.068677)" fill="none" stroke-linejoin="miter" d="M 116.572495 0.00218141 C 52.189907 0.00218141 0.00217541 52.189913 0.00217541 116.572501 C 0.00217541 180.949877 52.189907 233.14282 116.572495 233.14282 C 180.949871 233.14282 233.142814 180.949877 233.142814 116.572501 C 233.142814 52.189913 180.949871 0.00218141 116.572495 0.00218141 " stroke="#000000" stroke-width="20" stroke-opacity="1" stroke-miterlimit="4"/></g></g><g fill="#000000" fill-opacity="1"><g transform="translate(117.733013, 224.660304)"><g><path d="M 61.53125 -7.875 C 58.589844 -5.039062 55.019531 -2.414062 50.296875 -1.363281 C 32.761719 3.464844 17.429688 -13.125 13.230469 -29.191406 C 9.136719 -45.148438 13.859375 -67.199219 31.710938 -72.136719 C 53.96875 -78.328125 65.203125 -54.601562 65.730469 -53.339844 L 65.730469 -64.261719 C 65.730469 -64.261719 54.703125 -79.273438 31.605469 -72.871094 C 11.550781 -67.621094 -0.316406 -47.039062 5.039062 -27.089844 C 10.5 -7.140625 30.976562 4.933594 50.503906 -0.839844 C 58.378906 -2.835938 64.996094 -7.140625 69.511719 -12.914062 L 69.511719 -34.859375 L 29.398438 -34.859375 L 29.398438 -26.773438 C 36.855469 -33.601562 48.71875 -34.019531 61.53125 -34.019531 Z M 61.53125 -7.875 "/></g></g></g><g fill="#3d3a39" fill-opacity="1"><g transform="translate(150.945524, 297.066728)"><g><path d="M -10.496094 -5.363281 C -13.757812 -6.859375 -17.015625 -6.875 -19.65625 -5.511719 C -19.855469 -5.417969 -19.980469 -5.277344 -20.082031 -5.054688 L -22.613281 0.476562 C -22.757812 0.792969 -22.671875 1.03125 -22.351562 1.175781 L -15.558594 4.289062 C -15.25 4.429688 -15 4.347656 -14.855469 4.03125 L -13.757812 1.636719 C -13.613281 1.320312 -13.714844 1.074219 -14.019531 0.933594 L -17.539062 -0.679688 L -16.9375 -1.996094 C -15.484375 -2.59375 -13.792969 -2.570312 -12.125 -1.804688 C -8.886719 -0.320312 -7.632812 3.050781 -9.285156 6.652344 C -10.886719 10.152344 -14.207031 11.328125 -17.460938 9.839844 C -19.195312 9.042969 -20.347656 7.707031 -20.84375 6.15625 C -20.933594 5.832031 -21.128906 5.699219 -21.457031 5.761719 L -24.847656 6.339844 C -25.191406 6.410156 -25.328125 6.617188 -25.226562 6.949219 C -24.425781 9.730469 -22.34375 12.128906 -19.175781 13.582031 C -13.480469 16.191406 -7.792969 14.253906 -5.175781 8.535156 C -2.554688 2.820312 -4.800781 -2.753906 -10.496094 -5.363281 Z M -10.496094 -5.363281 "/></g></g></g><g fill="#3d3a39" fill-opacity="1"><g transform="translate(116.171938, 278.161742)"><g><path d="M -31.683594 -4.890625 C -31.5 -4.691406 -31.238281 -4.617188 -30.96875 -4.726562 L -19.945312 -8.847656 L -24.949219 2.160156 C -25.058594 2.382812 -25.058594 2.648438 -24.839844 2.882812 C -24.589844 3.148438 -24.335938 3.121094 -24.121094 3.046875 L -12.917969 -1.296875 L -17.785156 9.40625 C -17.910156 9.664062 -17.855469 9.933594 -17.671875 10.128906 L -15.074219 12.914062 C -14.800781 13.207031 -14.496094 13.152344 -14.335938 12.777344 L -6.210938 -6.65625 C -5.898438 -7.421875 -6.339844 -7.894531 -7.097656 -7.609375 L -18.367188 -3.257812 L -13.253906 -14.207031 C -12.917969 -14.945312 -13.359375 -15.417969 -14.144531 -15.160156 L -34.09375 -8.398438 C -34.480469 -8.265625 -34.53125 -7.941406 -34.28125 -7.675781 Z M -31.683594 -4.890625 "/></g></g></g><g fill="#3d3a39" fill-opacity="1"><g transform="translate(87.191658, 240.463515)"><g><path d="M -5.273438 -13.035156 C -5.40625 -13.355469 -5.640625 -13.457031 -5.964844 -13.324219 L -8.597656 -12.261719 C -8.90625 -12.136719 -9.019531 -11.894531 -8.886719 -11.570312 L -6.039062 -4.535156 L -8.625 -3.488281 L -11.085938 -9.566406 C -11.214844 -9.890625 -11.453125 -9.992188 -11.773438 -9.859375 L -14.21875 -8.871094 C -14.539062 -8.742188 -14.640625 -8.507812 -14.507812 -8.183594 L -12.050781 -2.101562 L -17.195312 -0.0195312 L -20.042969 -7.058594 C -20.171875 -7.382812 -20.421875 -7.476562 -20.730469 -7.351562 L -23.367188 -6.285156 C -23.6875 -6.152344 -23.789062 -5.917969 -23.65625 -5.59375 L -19.320312 5.128906 C -19.1875 5.453125 -18.953125 5.550781 -18.628906 5.421875 L -1.226562 -1.621094 C -0.902344 -1.75 -0.804688 -1.988281 -0.933594 -2.308594 Z M -5.273438 -13.035156 "/></g></g></g><g fill="#3d3a39" fill-opacity="1"><g transform="translate(76.816828, 207.887945)"><g><path d="M -0.324219 -5.828125 C -0.34375 -6.160156 -0.535156 -6.332031 -0.882812 -6.3125 L -11.660156 -5.714844 L -0.96875 -17.429688 C -0.25 -18.230469 -0.597656 -18.859375 -1.511719 -18.808594 L -20.320312 -17.761719 C -20.667969 -17.742188 -20.839844 -17.539062 -20.820312 -17.203125 L -20.636719 -13.890625 C -20.617188 -13.542969 -20.425781 -13.371094 -20.078125 -13.390625 L -9.558594 -13.976562 L -20.085938 -2.167969 C -20.71875 -1.421875 -20.375 -0.859375 -19.460938 -0.910156 L -0.640625 -1.957031 C -0.289062 -1.976562 -0.121094 -2.164062 -0.140625 -2.515625 Z M -0.324219 -5.828125 "/></g></g></g><g fill="#3d3a39" fill-opacity="1"><g transform="translate(77.863059, 169.017347)"><g><path d="M -15.992188 -15.78125 C -16.8125 -15.648438 -16.984375 -15.078125 -16.367188 -14.53125 L -0.488281 -0.578125 C -0.175781 -0.308594 0.117188 -0.394531 0.226562 -0.765625 L 1.316406 -4.417969 C 1.398438 -4.703125 1.324219 -4.941406 1.09375 -5.117188 L -0.761719 -6.585938 L 1.414062 -13.886719 L 3.765625 -14.101562 C 4.058594 -14.121094 4.25 -14.28125 4.335938 -14.566406 L 5.421875 -18.214844 C 5.539062 -18.597656 5.335938 -18.820312 4.929688 -18.78125 Z M -8.855469 -12.96875 L -2.304688 -13.566406 L -3.695312 -8.898438 Z M -8.855469 -12.96875 "/></g></g></g><g fill="#3d3a39" fill-opacity="1"><g transform="translate(91.806407, 133.661991)"><g><path d="M 8.101562 -11.492188 C 8.300781 -11.777344 8.257812 -12.027344 7.972656 -12.230469 L 5.652344 -13.867188 C 5.378906 -14.058594 5.117188 -14.023438 4.914062 -13.738281 L 0.539062 -7.535156 L -1.738281 -9.140625 L 2.039062 -14.5 C 2.242188 -14.785156 2.195312 -15.039062 1.914062 -15.238281 L -0.242188 -16.757812 C -0.523438 -16.957031 -0.777344 -16.914062 -0.976562 -16.628906 L -4.757812 -11.269531 L -9.292969 -14.46875 L -4.921875 -20.671875 C -4.71875 -20.957031 -4.773438 -21.214844 -5.046875 -21.410156 L -7.371094 -23.046875 C -7.65625 -23.246094 -7.90625 -23.203125 -8.109375 -22.917969 L -14.773438 -13.464844 C -14.972656 -13.179688 -14.929688 -12.925781 -14.644531 -12.726562 L 0.699219 -1.910156 C 0.984375 -1.707031 1.234375 -1.75 1.4375 -2.035156 Z M 8.101562 -11.492188 "/></g></g></g><g fill="#3d3a39" fill-opacity="1"><g transform="translate(113.951245, 107.346773)"><g><path d="M 9.824219 -7.601562 C 10.097656 -7.816406 10.128906 -8.070312 9.917969 -8.34375 L 8.179688 -10.589844 C 7.972656 -10.855469 7.710938 -10.898438 7.4375 -10.683594 L 2.730469 -7.042969 L -6.699219 -19.222656 C -6.910156 -19.5 -7.164062 -19.53125 -7.441406 -19.320312 L -10.167969 -17.207031 C -10.441406 -16.996094 -10.476562 -16.742188 -10.261719 -16.464844 L 1.226562 -1.621094 C 1.441406 -1.34375 1.695312 -1.3125 1.96875 -1.523438 Z M 9.824219 -7.601562 "/></g></g></g><g fill="#3d3a39" fill-opacity="1"><g transform="translate(140.780098, 89.955366)"><g><path d="M 11.574219 -4.503906 C 11.898438 -4.628906 12.003906 -4.863281 11.875 -5.1875 L 10.847656 -7.835938 C 10.726562 -8.148438 10.488281 -8.265625 10.160156 -8.136719 L 4.613281 -5.980469 L -0.96875 -20.335938 C -1.097656 -20.660156 -1.332031 -20.761719 -1.65625 -20.636719 L -4.867188 -19.386719 C -5.191406 -19.257812 -5.296875 -19.023438 -5.167969 -18.699219 L 1.636719 -1.203125 C 1.761719 -0.878906 1.996094 -0.777344 2.324219 -0.902344 Z M 11.574219 -4.503906 "/></g></g></g><g fill="#3d3a39" fill-opacity="1"><g transform="translate(171.340571, 80.818424)"><g><path d="M 14.023438 -1.023438 C 14.371094 -1.050781 14.539062 -1.242188 14.511719 -1.589844 L 14.304688 -4.425781 C 14.28125 -4.757812 14.085938 -4.9375 13.738281 -4.914062 L 6.167969 -4.359375 L 5.964844 -7.140625 L 12.503906 -7.621094 C 12.851562 -7.644531 13.019531 -7.839844 12.996094 -8.1875 L 12.804688 -10.8125 C 12.777344 -11.160156 12.585938 -11.328125 12.238281 -11.300781 L 5.695312 -10.824219 L 5.289062 -16.363281 L 12.863281 -16.914062 C 13.210938 -16.941406 13.375 -17.144531 13.351562 -17.480469 L 13.144531 -20.3125 C 13.121094 -20.660156 12.925781 -20.828125 12.578125 -20.804688 L 1.039062 -19.960938 C 0.691406 -19.933594 0.527344 -19.742188 0.550781 -19.394531 L 1.917969 -0.671875 C 1.945312 -0.324219 2.136719 -0.15625 2.484375 -0.179688 Z M 14.023438 -1.023438 "/></g></g></g><g fill="#3d3a39" fill-opacity="1"><g transform="translate(205.895217, 81.407149)"><g/></g></g><g fill="#3d3a39" fill-opacity="1"><g transform="translate(231.909162, 89.131748)"><g/></g></g><g fill="#3d3a39" fill-opacity="1"><g transform="translate(255.212881, 102.699986)"><g><path d="M 9.390625 8.128906 C 9.65625 8.355469 9.910156 8.339844 10.136719 8.074219 L 11.996094 5.925781 C 12.214844 5.671875 12.207031 5.410156 11.941406 5.179688 L 7.441406 1.285156 L 17.523438 -10.359375 C 17.75 -10.625 17.734375 -10.878906 17.46875 -11.109375 L 14.863281 -13.363281 C 14.597656 -13.59375 14.34375 -13.574219 14.117188 -13.308594 L 1.832031 0.882812 C 1.601562 1.148438 1.621094 1.402344 1.882812 1.628906 Z M 9.390625 8.128906 "/></g></g></g><g fill="#3d3a39" fill-opacity="1"><g transform="translate(277.573066, 125.447485)"><g><path d="M 7.460938 11.917969 C 7.644531 12.214844 7.894531 12.269531 8.1875 12.085938 L 10.597656 10.578125 C 10.882812 10.402344 10.949219 10.144531 10.765625 9.851562 L 6.738281 3.414062 L 9.101562 1.933594 L 12.582031 7.496094 C 12.765625 7.789062 13.015625 7.847656 13.308594 7.664062 L 15.542969 6.265625 C 15.839844 6.082031 15.894531 5.832031 15.710938 5.535156 L 12.230469 -0.0234375 L 16.9375 -2.96875 L 20.964844 3.464844 C 21.148438 3.761719 21.410156 3.8125 21.695312 3.632812 L 24.101562 2.125 C 24.398438 1.941406 24.457031 1.691406 24.269531 1.398438 L 18.132812 -8.410156 C 17.949219 -8.703125 17.699219 -8.761719 17.402344 -8.578125 L 1.488281 1.382812 C 1.195312 1.566406 1.136719 1.816406 1.320312 2.113281 Z M 7.460938 11.917969 "/></g></g></g><g fill="#3d3a39" fill-opacity="1"><g transform="translate(293.485662, 155.678961)"><g><path d="M 2.152344 11.585938 C 2.957031 15.085938 4.933594 17.679688 7.621094 18.941406 C 7.816406 19.039062 8.003906 19.050781 8.246094 18.996094 L 14.171875 17.628906 C 14.511719 17.550781 14.644531 17.335938 14.566406 16.996094 L 12.890625 9.710938 C 12.8125 9.382812 12.59375 9.234375 12.253906 9.3125 L 9.6875 9.90625 C 9.347656 9.984375 9.214844 10.210938 9.289062 10.539062 L 10.160156 14.3125 L 8.75 14.640625 C 7.390625 13.851562 6.375 12.496094 5.964844 10.710938 C 5.164062 7.238281 7.074219 4.1875 10.933594 3.296875 C 14.683594 2.433594 17.644531 4.347656 18.445312 7.835938 C 18.875 9.695312 18.515625 11.421875 17.59375 12.761719 C 17.390625 13.03125 17.40625 13.269531 17.65625 13.488281 L 20.179688 15.820312 C 20.445312 16.050781 20.691406 16.035156 20.890625 15.75 C 22.609375 13.421875 23.242188 10.308594 22.460938 6.910156 C 21.054688 0.808594 16.046875 -2.515625 9.921875 -1.105469 C 3.792969 0.304688 0.746094 5.484375 2.152344 11.585938 Z M 2.152344 11.585938 "/></g></g></g><g fill="#3d3a39" fill-opacity="1"><g transform="translate(299.101394, 195.091061)"><g><path d="M 5.601562 14.773438 C 6.375 16.933594 8.316406 18.292969 11.214844 18.640625 C 14.855469 19.074219 17.871094 17.648438 18.523438 12.164062 L 19.398438 4.816406 C 19.441406 4.46875 19.28125 4.269531 18.9375 4.226562 L 0.292969 2.011719 C -0.0507812 1.96875 -0.253906 2.128906 -0.292969 2.472656 L -0.703125 5.921875 C -0.742188 6.257812 -0.585938 6.46875 -0.242188 6.511719 L 5.796875 7.230469 L 5.441406 10.230469 L -1.097656 12.613281 C -1.382812 12.707031 -1.53125 12.871094 -1.566406 13.167969 L -2.03125 17.089844 C -2.078125 17.476562 -1.839844 17.671875 -1.449219 17.535156 Z M 14.738281 10.996094 C 14.59375 12.214844 14.308594 14.484375 11.707031 14.171875 C 8.949219 13.84375 9.238281 11.332031 9.351562 10.355469 L 9.667969 7.691406 L 15.054688 8.328125 Z M 14.738281 10.996094 "/></g></g></g><g fill="#3d3a39" fill-opacity="1"><g transform="translate(291.797899, 231.317827)"><g><path d="M 13.175781 18.199219 C 14.003906 18.207031 14.265625 17.671875 13.746094 17.03125 L 0.386719 0.648438 C 0.125 0.332031 -0.179688 0.371094 -0.351562 0.71875 L -2.023438 4.140625 C -2.15625 4.40625 -2.117188 4.65625 -1.921875 4.867188 L -0.335938 6.621094 L -3.683594 13.464844 L -6.039062 13.289062 C -6.328125 13.261719 -6.546875 13.382812 -6.675781 13.652344 L -8.351562 17.074219 C -8.527344 17.433594 -8.363281 17.683594 -7.957031 17.710938 Z M 6.597656 14.25 L 0.0390625 13.761719 L 2.179688 9.386719 Z M 6.597656 14.25 "/></g></g></g><g fill="#3d3a39" fill-opacity="1"><g transform="translate(272.488308, 263.898845)"><g><path d="M -4.1875 4.066406 C -4.425781 4.300781 -4.429688 4.554688 -4.1875 4.804688 L 3.332031 12.546875 L -12.519531 12.164062 C -13.597656 12.148438 -13.84375 12.820312 -13.207031 13.476562 L -0.0820312 26.988281 C 0.164062 27.238281 0.425781 27.234375 0.667969 27 L 3.046875 24.6875 C 3.296875 24.445312 3.300781 24.1875 3.058594 23.9375 L -4.28125 16.382812 L 11.539062 16.582031 C 12.515625 16.570312 12.714844 15.945312 12.078125 15.285156 L -1.058594 1.765625 C -1.300781 1.515625 -1.554688 1.511719 -1.804688 1.753906 Z M -4.1875 4.066406 "/></g></g></g><g fill="#3d3a39" fill-opacity="1"><g transform="translate(242.482869, 288.612288)"><g><path d="M -7.746094 3.492188 C -14.3125 6.457031 -15.9375 11.265625 -13.394531 16.90625 C -10.808594 22.636719 -6.074219 24.496094 0.410156 21.570312 L 5.882812 19.101562 C 6.199219 18.960938 6.289062 18.71875 6.148438 18.402344 L -1.570312 1.289062 C -1.714844 0.972656 -1.953125 0.882812 -2.273438 1.023438 Z M 0.605469 17.203125 L -1.195312 18.015625 C -4.878906 19.679688 -7.683594 18.605469 -9.261719 15.109375 C -10.835938 11.617188 -9.824219 8.710938 -6.140625 7.046875 L -4.339844 6.234375 Z M 0.605469 17.203125 "/></g></g></g><g fill="#000000" fill-opacity="1"><g transform="translate(206.135822, 225.409512)"><g><path d="M 48.089844 -15.539062 C 44.203125 -4.933594 38.851562 -0.839844 29.820312 -0.839844 L 12.074219 -0.839844 L 12.074219 -74.128906 L 3.675781 -74.128906 L 3.675781 0 L 45.570312 0 Z M 48.089844 -15.539062 "/></g></g></g></svg>