<svg xmlns="http://www.w3.org/2000/svg" xmlns:xlink="http://www.w3.org/1999/xlink" width="500" zoomAndPan="magnify" viewBox="0 0 375 374.999991" height="500" preserveAspectRatio="xMidYMid meet" version="1.0"><defs><g/><clipPath id="c5a3ae85e6"><path d="M 37.5 37.5 L 337.5 37.5 L 337.5 337.5 L 37.5 337.5 Z M 37.5 37.5 " clip-rule="nonzero"/></clipPath></defs><rect x="-37.5" width="450" fill="#ffffff" y="-37.499999" height="449.999989" fill-opacity="1"/><rect x="-37.5" width="450" fill="#ffffff" y="-37.499999" height="449.999989" fill-opacity="1"/><rect x="-37.5" width="450" fill="#ffffff" y="-37.499999" height="449.999989" fill-opacity="1"/><g fill="#000000" fill-opacity="1"><g transform="translate(98.891338, 276.333806)"><g><path d="M 158.046875 -24.265625 C 151.773438 -15.285156 143.023438 -8.570312 131.796875 -4.125 C 120.578125 0.320312 107.515625 2.546875 92.609375 2.546875 C 77.535156 2.546875 64.15625 -0.988281 52.46875 -8.0625 C 40.78125 -15.132812 31.738281 -25.191406 25.34375 -38.234375 C 18.945312 -51.285156 15.664062 -66.40625 15.5 -83.59375 L 15.5 -99.734375 C 15.5 -127.597656 22 -149.191406 35 -164.515625 C 48 -179.847656 66.273438 -187.515625 89.828125 -187.515625 C 109.128906 -187.515625 124.664062 -182.582031 136.4375 -172.71875 C 148.21875 -162.851562 155.421875 -148.859375 158.046875 -130.734375 L 133.65625 -130.734375 C 129.082031 -155.203125 114.515625 -167.4375 89.953125 -167.4375 C 73.597656 -167.4375 61.207031 -161.695312 52.78125 -150.21875 C 44.351562 -138.75 40.097656 -122.128906 40.015625 -100.359375 L 40.015625 -85.25 C 40.015625 -64.5 44.757812 -48.003906 54.25 -35.765625 C 63.738281 -23.523438 76.570312 -17.40625 92.75 -17.40625 C 101.894531 -17.40625 109.894531 -18.421875 116.75 -20.453125 C 123.613281 -22.484375 129.289062 -25.914062 133.78125 -30.75 L 133.78125 -72.28125 L 90.96875 -72.28125 L 90.96875 -92.109375 L 158.046875 -92.109375 Z M 158.046875 -24.265625 "/></g></g></g><g clip-path="url(#c5a3ae85e6)"><path stroke-linecap="butt" transform="matrix(0.75, 0, 0, 0.75, 37.500002, 37.499998)" fill="none" stroke-linejoin="miter" d="M -0.00000271667 0.00000328333 L 400.000024 0.00000328333 L 400.000024 400.00003 L -0.00000271667 400.00003 L -0.00000271667 0.00000328333 " stroke="#000000" stroke-width="40" stroke-opacity="1" stroke-miterlimit="4"/></g><path stroke-linecap="butt" transform="matrix(0.75, 0, 0, 0.75, 0.0000045, 0.000000000000021316)" fill="none" stroke-linejoin="miter" d="M -0.000006 -0.000000000000028422 L 500.000059 -0.000000000000028422 L 500.000059 500.000065 L -0.000006 500.000065 L -0.000006 -0.000000000000028422 " stroke="#000000" stroke-width="40" stroke-opacity="1" stroke-miterlimit="4"/></svg>